Exact Audio Copy V0.99 prebeta 4 from 23. January 2008

EAC extraction logfile from 27. January 2010, 21:01

Various / Simon & Shaker - Space Of Sound Festival CD2

Used drive  : PLEXTOR DVDR   PX-755A   Adapter: 1  ID: 0

Read mode               : Secure
Utilize accurate stream : Yes
Defeat audio cache      : Yes
Make use of C2 pointers : No

Read offset correction                      : 30
Overread into Lead-In and Lead-Out          : Yes
Fill up missing offset samples with silence : Yes
Delete leading and trailing silent blocks   : No
Null samples used in CRC calculations       : Yes
Used interface                              : Native Win32 interface for Win NT & 2000
Gap handling                                : Appended to previous track

Used output format              : User Defined Encoder
Selected bitrate                : 128 kBit/s
Quality                         : High
Add ID3 tag                     : No
Command line compressor         : C:Program FilesExact Audio CopyFlacflac.exe
Additional command line options : -8 -V -T "ARTIST=%a" -T "TITLE=%t" -T "ALBUM=%g" -T "DATE=%y" -T "TRACKNUMBER=%n" -T "GENRE=%m" -T "COMMENT=EAC FLAC -8" %s


TOC of the extracted CD

     Track |   Start  |  Length  | Start sector | End sector 
    ---------------------------------------------------------
        1  |  0:00.00 |  6:42.53 |         0    |    30202   
        2  |  6:42.53 |  4:07.14 |     30203    |    48741   
        3  | 10:49.67 |  6:07.50 |     48742    |    76316   
        4  | 16:57.42 |  5:04.23 |     76317    |    99139   
        5  | 22:01.65 |  4:35.38 |     99140    |   119802   
        6  | 26:37.28 |  4:52.59 |    119803    |   141761   
        7  | 31:30.12 |  5:37.50 |    141762    |   167086   
        8  | 37:07.62 |  5:15.08 |    167087    |   190719   
        9  | 42:22.70 |  4:15.26 |    190720    |   209870   
       10  | 46:38.21 |  4:43.14 |    209871    |   231109   
       11  | 51:21.35 |  5:53.20 |    231110    |   257604   
       12  | 57:14.55 |  7:02.41 |    257605    |   289295   


Track  1

     Filename F:TorrentsVA - Simon & Shaker - Space Of Sound FestivalVarious - Simon & Shaker - Space Of Sound Festival CD2 1. John Shelvin feat. Molly - Just Like You Said (Simon & Shaker Remix).wav

     Pre-gap length  0:00:02.00

     Peak level 98.8 %
     Track quality 100.0 %
     Test CRC FBB5C1B1
     Copy CRC FBB5C1B1
     Track not present in AccurateRip database
     Copy OK

Track  2

     Filename F:TorrentsVA - Simon & Shaker - Space Of Sound FestivalVarious - Simon & Shaker - Space Of Sound Festival CD2 2. Simon & Shaker - The Shape (Original Mix).wav

     Peak level 98.8 %
     Track quality 100.0 %
     Test CRC 12D939F2
     Copy CRC 12D939F2
     Track not present in AccurateRip database
     Copy OK

Track  3

     Filename F:TorrentsVA - Simon & Shaker - Space Of Sound FestivalVarious - Simon & Shaker - Space Of Sound Festival CD2 3. Mihai Popoviciu, Marcus Homm, Jay Bliss - Bis Co.wav

     Peak level 98.8 %
     Track quality 100.0 %
     Test CRC 1D934898
     Copy CRC 1D934898
     Track not present in AccurateRip database
     Copy OK

Track  4

     Filename F:TorrentsVA - Simon & Shaker - Space Of Sound FestivalVarious - Simon & Shaker - Space Of Sound Festival CD2 4. Matthias Meyer - Tenor (Original Mix).wav

     Peak level 98.8 %
     Track quality 100.0 %
     Test CRC 30497B6F
     Copy CRC 30497B6F
     Track not present in AccurateRip database
     Copy OK

Track  5

     Filename F:TorrentsVA - Simon & Shaker - Space Of Sound FestivalVarious - Simon & Shaker - Space Of Sound Festival CD2 5. Simon & Shaker present The Sundayprayers - La Noche Del Cometa (Joeri Jameson Remix).wav

     Peak level 98.8 %
     Track quality 100.0 %
     Test CRC 794E8228
     Copy CRC 794E8228
     Track not present in AccurateRip database
     Copy OK

Track  6

     Filename F:TorrentsVA - Simon & Shaker - Space Of Sound FestivalVarious - Simon & Shaker - Space Of Sound Festival CD2 6. Okain - Blackrock (Original Mix).wav

     Peak level 98.8 %
     Track quality 100.0 %
     Test CRC BCEC6620
     Copy CRC BCEC6620
     Track not present in AccurateRip database
     Copy OK

Track  7

     Filename F:TorrentsVA - Simon & Shaker - Space Of Sound FestivalVarious - Simon & Shaker - Space Of Sound Festival CD2 7. Nick Curly - Pujante (Original Mix).wav

     Copy aborted

Track  8

     Filename F:TorrentsVA - Simon & Shaker - Space Of Sound FestivalVarious - Simon & Shaker - Space Of Sound Festival CD2 8. Simon & Shaker present Teramik - North Face (Original Mix).wav

     Peak level 98.8 %
     Track quality 99.9 %
     Test CRC 80F5FBC6
     Copy CRC 80F5FBC6
     Track not present in AccurateRip database
     Copy OK

Track  9

     Filename F:TorrentsVA - Simon & Shaker - Space Of Sound FestivalVarious - Simon & Shaker - Space Of Sound Festival CD2 9. Simon & Shaker present The Sundayprayers - La Noche Del Cometa (Original Mix).wav

     Peak level 98.8 %
     Track quality 99.9 %
     Test CRC 8208E6DB
     Copy CRC 8208E6DB
     Track not present in AccurateRip database
     Copy OK

Track 10

     Filename F:TorrentsVA - Simon & Shaker - Space Of Sound FestivalVarious - Simon & Shaker - Space Of Sound Festival CD210. Radio Slave - Koma Koma (Steve Lawler Remix).wav

     Peak level 98.8 %
     Track quality 100.0 %
     Test CRC 29FB2D75
     Copy CRC 29FB2D75
     Track not present in AccurateRip database
     Copy OK

Track 11

     Filename F:TorrentsVA - Simon & Shaker - Space Of Sound FestivalVarious - Simon & Shaker - Space Of Sound Festival CD211. Blake Jarrel present Trasher - Hoso (Simon & Shaker Remix).wav

     Peak level 98.8 %
     Track quality 100.0 %
     Test CRC 0C11C930
     Copy CRC 0C11C930
     Track not present in AccurateRip database
     Copy OK

Track 12

     Filename F:TorrentsVA - Simon & Shaker - Space Of Sound FestivalVarious - Simon & Shaker - Space Of Sound Festival CD212. Simon & Shaker present Dark Providers - Neo (Mark Marzenit Remix).wav

     Peak level 98.8 %
     Track quality 100.0 %
     Test CRC C4EB4E9A
     Copy CRC C4EB4E9A
     Track not present in AccurateRip database
     Copy OK


11 track(s) not present in the AccurateRip database
 1 track(s) canceled

No tracks could be verified as accurate

There were errors

End of status report

------------------------------------------------------------

Exact Audio Copy V0.99 prebeta 4 from 23. January 2008

EAC extraction logfile from 27. January 2010, 21:06

Various / Simon & Shaker - Space Of Sound Festival CD2

Used drive  : Optiarc DVD RW AD-7201A   Adapter: 0  ID: 0

Read mode               : Secure
Utilize accurate stream : Yes
Defeat audio cache      : Yes
Make use of C2 pointers : No

Read offset correction                      : 48
Overread into Lead-In and Lead-Out          : No
Fill up missing offset samples with silence : Yes
Delete leading and trailing silent blocks   : No
Null samples used in CRC calculations       : Yes
Used interface                              : Native Win32 interface for Win NT & 2000
Gap handling                                : Appended to previous track

Used output format              : User Defined Encoder
Selected bitrate                : 128 kBit/s
Quality                         : High
Add ID3 tag                     : No
Command line compressor         : C:Program FilesExact Audio CopyFlacflac.exe
Additional command line options : -8 -V -T "ARTIST=%a" -T "TITLE=%t" -T "ALBUM=%g" -T "DATE=%y" -T "TRACKNUMBER=%n" -T "GENRE=%m" -T "COMMENT=EAC FLAC -8" %s


TOC of the extracted CD

     Track |   Start  |  Length  | Start sector | End sector 
    ---------------------------------------------------------
        1  |  0:00.00 |  6:42.53 |         0    |    30202   
        2  |  6:42.53 |  4:07.14 |     30203    |    48741   
        3  | 10:49.67 |  6:07.50 |     48742    |    76316   
        4  | 16:57.42 |  5:04.23 |     76317    |    99139   
        5  | 22:01.65 |  4:35.38 |     99140    |   119802   
        6  | 26:37.28 |  4:52.59 |    119803    |   141761   
        7  | 31:30.12 |  5:37.50 |    141762    |   167086   
        8  | 37:07.62 |  5:15.08 |    167087    |   190719   
        9  | 42:22.70 |  4:15.26 |    190720    |   209870   
       10  | 46:38.21 |  4:43.14 |    209871    |   231109   
       11  | 51:21.35 |  5:53.20 |    231110    |   257604   
       12  | 57:14.55 |  7:02.41 |    257605    |   289295   


Track  7

     Filename F:TorrentsVA - Simon & Shaker - Space Of Sound FestivalVarious - Simon & Shaker - Space Of Sound Festival CD2 7. Nick Curly - Pujante (Original Mix).wav

     Peak level 98.8 %
     Track quality 100.0 %
     Test CRC 7CF76411
     Copy CRC 7CF76411
     Track not present in AccurateRip database
     Copy OK


None of the tracks are present in the AccurateRip database

No errors occurred

End of status report
